<?xml version="1.0" encoding="utf-8"?>
<!-- Generator: Adobe Illustrator 22.0.1, SVG Export Plug-In . SVG Version: 6.00 Build 0)  -->
<svg version="1.1" id="Layer_1" xmlns="http://www.w3.org/2000/svg" xmlns:xlink="http://www.w3.org/1999/xlink" x="0px" y="0px"
	 viewBox="0 0 256 256" style="enable-background:new 0 0 256 256;" xml:space="preserve">
<style type="text/css">
	.st0{fill:#EEEEEE;}
	.st1{fill:#FFFFFF;}
</style>
<g>
	<path class="st0" d="M253.5,61.2c0.4,0.6,0.8,1.3,1.2,2.2c0.5,1.1,0.7,2.1,0.8,2.8c0.1,3.5,0.1,7.1,0.2,10.6l-0.3,14.6
		c-0.2,1.3-0.7,3.9-2.5,6.6c-1.7,2.4-3.7,3.7-4.8,4.4c-3.3,2-6.7,3.9-10,5.9c-1.1,0.8-2.7,2-4.1,4c-1.5,2.1-2.3,4.1-2.7,5.4
		c-0.6,1.6-1.1,3.5-1.5,5.7c-0.5,2.6-0.7,4.9-0.8,6.9c0.1,1.9,0.5,4.6,1.6,7.6c1.3,3.6,3.2,6.2,4.5,7.9c1.4,1.5,3.2,3.4,5.7,5.1
		c3,2.1,5.8,3.5,8,4.3c0.8,0.4,1.8,0.9,2.8,1.7c1.2,1,2,2,2.6,2.8c0.4,0.6,0.8,1.6,1,2.9c0.2,1.1,0.2,2,0.1,2.7
		c0,6.2,0,12.5,0.1,18.7l-0.2,6.3c-0.1,0.7-0.2,1.6-0.6,2.6c-0.2,0.5-1.1,2.7-1.4,3.4c-0.2,0.3-0.4,0.5-0.7,0.8
		c-0.3,0.3-0.5,0.5-0.8,0.7c-0.2,0.1-0.5,0.2-0.8,0.3c-0.4,0.1-0.7,0.2-1,0.3c-1.1,0.1-2.2,0.2-3.4,0.4c-1.1,0.2-6.7,0.6-8.4,0.6
		l-22.6,0l-168.1-0.3l-32.4-0.4c-1.1,0-2.3-0.1-3.6-0.3c-1.1-0.2-2.1-0.4-3-0.6c-1-0.5-2.1-1.1-3.3-1.9c-0.8-0.5-1.6-1.1-2.3-1.6
		c-0.6-0.7-1-1.3-1.2-1.7c0,0-0.3-0.5-1.1-2.6l0,0l-0.1-4.4l0.2-22c0.1-0.8,0.2-1.9,0.6-3c0.3-1.1,0.8-2,1.2-2.7
		c0.4-0.5,1-1.1,2-1.7c0.8-0.5,1.5-0.7,2-0.8c1-0.4,2.2-0.9,3.4-1.5c0.9-0.5,1.7-0.9,2.5-1.4c1-0.5,2.1-1.2,3.2-1.9
		c1.5-1.1,2.8-2.1,3.9-3.1c1.2-1.2,2.7-2.8,4-5c1.1-1.8,1.8-3.4,2.3-4.8c0.7-1.6,1.5-3.9,1.8-6.9c0.2-2,0-3.7-0.2-5
		c-0.2-1.5-0.5-3.2-1.1-5.2c-0.6-1.9-1.3-3.4-2-4.7c-0.6-1.1-1.4-2.5-2.5-3.9c-1.1-1.4-2.2-2.5-3.2-3.4c-2.4-2-5.2-3.8-8.5-5.2
		c-0.3-0.1-0.5-0.2-0.8-0.3c-1-0.5-2.2-1.2-3.3-1.9c-0.9-0.6-1.8-1.2-2.5-1.8c-0.6-0.6-1.4-1.7-1.9-3.2c-0.4-1.1-0.6-2.1-0.7-2.9
		c0-3.8,0-7.6,0-11.3l0-9.8l0.6-7.2l1.1-4.3c0.3-0.4,1-1.2,2-1.6c0.4-0.2,0.8-0.3,1.1-0.3c1.3-0.1,2.7-0.2,4-0.3
		c11.4-0.2,22.8-0.4,34.1-0.6c66.1-0.9,132.1-0.8,198.2,0.3c1.3,0.1,2.5,0.2,3.4,0.4c0.6,0.1,2.3,0.3,2.7,0.4
		c0.6,0.1,1.2,0.2,1.7,0.3c0.6,0.2,1.3,0.5,2.1,0.9C252.4,60.2,253,60.7,253.5,61.2z"/>
	<g>
		<g>
			<g>
				<rect x="118.3" y="96.1" class="st1" width="19.1" height="63.8"/>
				<path class="st1" d="M165.8,159.9h-19.1V96.1h15.1c2.2,0,4,1.8,4,4V159.9z"/>
			</g>
			<path class="st1" d="M109.3,159.9H90.2v-59.8c0-2.2,1.8-4,4-4h15.1V159.9z"/>
		</g>
		<g>
			
				<rect x="135.7" y="92.9" transform="matrix(0.7071 0.7071 -0.7071 0.7071 123.3482 -65.5607)" class="st1" width="10.2" height="46.4"/>
			
				<rect x="110.1" y="92.9" transform="matrix(0.7071 -0.7071 0.7071 0.7071 -48.3675 115.4586)" class="st1" width="10.2" height="46.4"/>
		</g>
	</g>
</g>
</svg>
