<svg id="Layer_1" data-name="Layer 1" xmlns="http://www.w3.org/2000/svg" xmlns:xlink="http://www.w3.org/1999/xlink" viewBox="0 0 255.42 142.49"><defs><style>.cls-1{fill:url(#linear-gradient);}.cls-2{fill:#fff;}</style><linearGradient id="linear-gradient" x1="207.69" y1="181.43" x2="-3.82" y2="38.25" gradientUnits="userSpaceOnUse"><stop offset="0" stop-color="#40baeb"/><stop offset="1" stop-color="#547bbe"/></linearGradient></defs><title>Micket</title><path class="cls-1" d="M253.49,61.16a12.23,12.23,0,0,1,2,5.06l.21,10.59-.3,14.6A14.69,14.69,0,0,1,252.88,98a14.9,14.9,0,0,1-4.84,4.37l-10,5.92a17.52,17.52,0,0,0-6.86,9.37,42,42,0,0,0-1.51,5.68,42.71,42.71,0,0,0-.77,6.9,26.88,26.88,0,0,0,1.58,7.57,26.59,26.59,0,0,0,4.55,7.86,34.16,34.16,0,0,0,5.65,5.09,35.13,35.13,0,0,0,8,4.3,13.18,13.18,0,0,1,2.82,1.73,13.36,13.36,0,0,1,2.58,2.76,9.48,9.48,0,0,1,1,2.87,9.8,9.8,0,0,1,.13,2.72l.06,18.72-.18,6.28a9.43,9.43,0,0,1-.55,2.58c-.19.54-1.12,2.73-1.36,3.39a7.91,7.91,0,0,1-.71.82,7.26,7.26,0,0,1-.79.68c-.25.1-.52.2-.81.29a9.78,9.78,0,0,1-1,.26c-1.08.1-2.22.24-3.42.44s-6.65.63-8.44.64H215.44L47.32,198.9l-32.41-.43a26.55,26.55,0,0,1-3.56-.29,25.76,25.76,0,0,1-3-.61,33.69,33.69,0,0,1-3.29-1.86c-.85-.55-1.62-1.1-2.33-1.63a10.61,10.61,0,0,1-1.2-1.75s-.29-.53-1.1-2.6h0l-.15-4.36.17-22a12.69,12.69,0,0,1,1.73-5.72,7.91,7.91,0,0,1,2-1.68,7.62,7.62,0,0,1,2-.84c1-.41,2.17-.91,3.35-1.51.91-.46,1.74-.94,2.5-1.41a32.39,32.39,0,0,0,3.2-1.93,32.6,32.6,0,0,0,3.9-3.13,25,25,0,0,0,4-5,24.63,24.63,0,0,0,2.29-4.82,20.83,20.83,0,0,0,1.78-6.91,20.6,20.6,0,0,0-.21-5,27.62,27.62,0,0,0-1.08-5.2,28.24,28.24,0,0,0-2-4.69,24.43,24.43,0,0,0-2.52-3.91,25.12,25.12,0,0,0-3.22-3.36A39.7,39.7,0,0,0,9.75,103L9,102.67c-1.05-.55-2.16-1.19-3.32-2-.92-.61-1.77-1.22-2.53-1.82a10.17,10.17,0,0,1-1.95-3.17,10.32,10.32,0,0,1-.65-2.88l0-11.34,0-9.8.61-7.16,1.09-4.32a5,5,0,0,1,2-1.61,4.34,4.34,0,0,1,1.14-.34l4-.34q17.07-.33,34.13-.57Q142.56,56,241.7,57.7c1.35.14,2.49.24,3.36.38.61.1,2.35.35,2.68.38a9.46,9.46,0,0,1,1.7.3,9.73,9.73,0,0,1,2.09.91A9.83,9.83,0,0,1,253.49,61.16Z" transform="translate(-0.29 -56.76)"/><rect class="cls-2" x="118.04" y="39.34" width="19.09" height="63.81"/><path class="cls-2" d="M146.43,39.34h15.09a4,4,0,0,1,4,4v59.81a0,0,0,0,1,0,0H146.43a0,0,0,0,1,0,0V39.34A0,0,0,0,1,146.43,39.34Z"/><path class="cls-2" d="M93.89,39.34H109a0,0,0,0,1,0,0v63.81a0,0,0,0,1,0,0H89.89a0,0,0,0,1,0,0V43.34A4,4,0,0,1,93.89,39.34Z"/><rect class="cls-2" x="135.71" y="92.9" width="10.21" height="46.42" transform="translate(123.06 -122.32) rotate(45)"/><rect class="cls-2" x="110.08" y="92.9" width="10.21" height="46.42" transform="translate(-48.66 58.7) rotate(-45)"/></svg>